<svg xmlns="http://www.w3.org/2000/svg" viewBox="0 0 760 340" font-family="'Fira Sans Extra Condensed','Fira Sans',sans-serif">
  <defs>
    <style>
      .cellbox{fill:#F7F1FB;stroke:#7B3F9E;stroke-width:2}
      .num{font-size:15px;font-weight:900;fill:#5A2E77}
      .nuc{fill:#EBD6F7;stroke:#7B3F9E;stroke-width:1.3}
      .chr{stroke-width:3.4;stroke-linecap:round}
      .cr1{stroke:#7B3F9E}.cr2{stroke:#C0392B}
      .spk{fill:#9B5FBF}
    </style>
  </defs>
  <text x="380" y="20" font-size="15" font-weight="700" fill="#5A2E77" text-anchor="middle">Cada quadre és una cèl·lula en un moment diferent. Agrupa-les, ordena-les i compta-les.</text>

  <g transform="translate(20,36)"><rect class="cellbox" width="120" height="120" rx="9"/><text class="num" x="8" y="20">1</text>
    <circle class="nuc" cx="60" cy="66" r="30"/><circle class="spk" cx="52" cy="60" r="2.5"/><circle class="spk" cx="68" cy="58" r="2.5"/><circle class="spk" cx="60" cy="74" r="2.5"/><circle class="spk" cx="66" cy="70" r="2.5"/></g>

  <g transform="translate(164,36)"><rect class="cellbox" width="120" height="120" rx="9"/><text class="num" x="8" y="20">2</text>
    <line x1="24" y1="66" x2="96" y2="66" stroke="#A66BC9" stroke-width="1.2"/>
    <path d="M48,50 L48,62 M56,50 L56,62" class="cr1 chr"/><path d="M64,50 L64,62 M72,50 L72,62" class="cr2 chr"/>
    <path d="M48,70 L48,82 M56,70 L56,82" class="cr1 chr"/><path d="M64,70 L64,82 M72,70 L72,82" class="cr2 chr"/></g>

  <g transform="translate(308,36)"><rect class="cellbox" width="120" height="120" rx="9"/><text class="num" x="8" y="20">3</text>
    <circle class="nuc" cx="60" cy="66" r="30"/><circle class="spk" cx="54" cy="62" r="2.5"/><circle class="spk" cx="66" cy="60" r="2.5"/><circle class="spk" cx="60" cy="72" r="2.5"/></g>

  <g transform="translate(452,36)"><rect class="cellbox" width="120" height="120" rx="9"/><text class="num" x="8" y="20">4</text>
    <circle class="nuc" cx="60" cy="42" r="18"/><circle class="nuc" cx="60" cy="90" r="18"/>
    <line x1="24" y1="66" x2="96" y2="66" stroke="#7B3F9E" stroke-width="1.4" stroke-dasharray="3 3"/></g>

  <g transform="translate(596,36)"><rect class="cellbox" width="120" height="120" rx="9"/><text class="num" x="8" y="20">5</text>
    <circle class="nuc" cx="60" cy="66" r="30"/><circle class="spk" cx="52" cy="64" r="2.5"/><circle class="spk" cx="68" cy="62" r="2.5"/><circle class="spk" cx="62" cy="74" r="2.5"/><circle class="spk" cx="56" cy="56" r="2.5"/></g>

  <g transform="translate(20,180)"><rect class="cellbox" width="120" height="120" rx="9"/><text class="num" x="8" y="20">6</text>
    <circle cx="60" cy="66" r="32" fill="none" stroke="#7B3F9E" stroke-width="1.2" stroke-dasharray="4 4"/>
    <path d="M42,54 q7,-7 13,0 q6,7 -1,13" class="cr1" fill="none" stroke-width="4.5" stroke-linecap="round"/>
    <path d="M74,52 q7,6 0,13 q-6,6 1,12" class="cr2" fill="none" stroke-width="4.5" stroke-linecap="round"/>
    <path d="M50,82 q9,-6 17,1" class="cr1" fill="none" stroke-width="4.5" stroke-linecap="round"/></g>

  <g transform="translate(164,180)"><rect class="cellbox" width="120" height="120" rx="9"/><text class="num" x="8" y="20">7</text>
    <circle class="nuc" cx="60" cy="66" r="30"/><circle class="spk" cx="54" cy="60" r="2.5"/><circle class="spk" cx="66" cy="64" r="2.5"/><circle class="spk" cx="60" cy="72" r="2.5"/></g>

  <g transform="translate(308,180)"><rect class="cellbox" width="120" height="120" rx="9"/><text class="num" x="8" y="20">8</text>
    <path d="M40,44 L40,54 M48,44 L48,54" class="cr1 chr"/><path d="M72,44 L72,54 M80,44 L80,54" class="cr2 chr"/>
    <path d="M40,80 L40,90 M48,80 L48,90" class="cr1 chr"/><path d="M72,80 L72,90 M80,80 L80,90" class="cr2 chr"/></g>

  <g transform="translate(452,180)"><rect class="cellbox" width="120" height="120" rx="9"/><text class="num" x="8" y="20">9</text>
    <circle class="nuc" cx="60" cy="66" r="30"/><circle class="spk" cx="52" cy="62" r="2.5"/><circle class="spk" cx="68" cy="60" r="2.5"/><circle class="spk" cx="62" cy="74" r="2.5"/><circle class="spk" cx="58" cy="68" r="2.5"/></g>

  <g transform="translate(596,180)"><rect class="cellbox" width="120" height="120" rx="9"/><text class="num" x="8" y="20">10</text>
    <circle class="nuc" cx="60" cy="66" r="30"/><circle class="spk" cx="54" cy="64" r="2.5"/><circle class="spk" cx="66" cy="62" r="2.5"/><circle class="spk" cx="60" cy="72" r="2.5"/></g>
</svg>
