<svg xmlns="http://www.w3.org/2000/svg" viewBox="0 0 720 470" font-family='Fira Sans Extra Condensed, sans-serif'>
<rect width="720" height="470" fill="#e7f4f1"/>
<text x="360" y="30" text-anchor="middle" font-size="21" font-weight="900" fill="#17605A">Grups sanguinis: codominància i tres al·lels</text>
<text x="360" y="52" text-anchor="middle" font-size="12.5" fill="#4d6560">Un mateix gen amb TRES al·lels diferents = al·lelisme múltiple</text>
<polygon points="150,68 144,80 156,80" fill="#2f9aa0" stroke="#1c6f70"/><text x="164" y="79" font-size="11" fill="#4d6560">= antigen A</text>
<rect x="270" y="70" width="11" height="10" fill="#c8960a" stroke="#7a5800"/><text x="288" y="79" font-size="11" fill="#4d6560">= antigen B</text>
<rect x="55" y="108" width="610" height="74" rx="10" fill="#fff" stroke="#a7cfc7" stroke-width="1.5"/><text x="95" y="142" text-anchor="middle" font-size="26" font-weight="900" fill="#1E7A70">A</text><text x="95" y="164" text-anchor="middle" font-size="10.5" fill="#4d6560">grup</text><line x1="138" y1="120" x2="138" y2="170" stroke="#a7cfc7"/><text x="160" y="138" font-size="9.5" fill="#17605A" font-weight="700">GENOTIP</text><text x="160" y="160" font-size="15" fill="#1d1622">I<tspan font-size="9" dy="-5">A</tspan><tspan dy="5"></tspan> I<tspan font-size="9" dy="-5">A</tspan><tspan dy="5"></tspan>  o  I<tspan font-size="9" dy="-5">A</tspan><tspan dy="5"></tspan> i</text><ellipse cx="430" cy="145" rx="30" ry="24" fill="#d9576b" stroke="#a63b4d" stroke-width="1.5"/><ellipse cx="430" cy="145" rx="13" ry="10" fill="#c14356" opacity="0.6"/><polygon points="414,123 408,133 420,133" fill="#2f9aa0" stroke="#1c6f70" stroke-width="1"/><text x="500" y="149" font-size="11" fill="#4d6560">antigen A</text><rect x="55" y="194" width="610" height="74" rx="10" fill="#fff" stroke="#a7cfc7" stroke-width="1.5"/><text x="95" y="228" text-anchor="middle" font-size="26" font-weight="900" fill="#1E7A70">B</text><text x="95" y="250" text-anchor="middle" font-size="10.5" fill="#4d6560">grup</text><line x1="138" y1="206" x2="138" y2="256" stroke="#a7cfc7"/><text x="160" y="224" font-size="9.5" fill="#17605A" font-weight="700">GENOTIP</text><text x="160" y="246" font-size="15" fill="#1d1622">I<tspan font-size="9" dy="-5">B</tspan><tspan dy="5"></tspan> I<tspan font-size="9" dy="-5">B</tspan><tspan dy="5"></tspan>  o  I<tspan font-size="9" dy="-5">B</tspan><tspan dy="5"></tspan> i</text><ellipse cx="430" cy="231" rx="30" ry="24" fill="#d9576b" stroke="#a63b4d" stroke-width="1.5"/><ellipse cx="430" cy="231" rx="13" ry="10" fill="#c14356" opacity="0.6"/><rect x="408" y="209" width="12" height="11" fill="#c8960a" stroke="#7a5800" stroke-width="1"/><text x="500" y="235" font-size="11" fill="#4d6560">antigen B</text><rect x="55" y="280" width="610" height="74" rx="10" fill="#fff" stroke="#a7cfc7" stroke-width="1.5"/><text x="95" y="314" text-anchor="middle" font-size="26" font-weight="900" fill="#1E7A70">AB</text><text x="95" y="336" text-anchor="middle" font-size="10.5" fill="#4d6560">grup</text><line x1="138" y1="292" x2="138" y2="342" stroke="#a7cfc7"/><text x="160" y="310" font-size="9.5" fill="#17605A" font-weight="700">GENOTIP</text><text x="160" y="332" font-size="15" fill="#1d1622">I<tspan font-size="9" dy="-5">A</tspan><tspan dy="5"></tspan> I<tspan font-size="9" dy="-5">B</tspan><tspan dy="5"></tspan></text><ellipse cx="430" cy="317" rx="30" ry="24" fill="#d9576b" stroke="#a63b4d" stroke-width="1.5"/><ellipse cx="430" cy="317" rx="13" ry="10" fill="#c14356" opacity="0.6"/><polygon points="414,295 408,305 420,305" fill="#2f9aa0" stroke="#1c6f70" stroke-width="1"/><rect x="428" y="295" width="12" height="11" fill="#c8960a" stroke="#7a5800" stroke-width="1"/><text x="500" y="313" font-size="11" fill="#4d6560">antígens A i B alhora</text><text x="500" y="329" font-size="11" fill="#4d6560">(codominància)</text><rect x="55" y="366" width="610" height="74" rx="10" fill="#fff" stroke="#a7cfc7" stroke-width="1.5"/><text x="95" y="400" text-anchor="middle" font-size="26" font-weight="900" fill="#1E7A70">0</text><text x="95" y="422" text-anchor="middle" font-size="10.5" fill="#4d6560">grup</text><line x1="138" y1="378" x2="138" y2="428" stroke="#a7cfc7"/><text x="160" y="396" font-size="9.5" fill="#17605A" font-weight="700">GENOTIP</text><text x="160" y="418" font-size="15" fill="#1d1622">i i</text><ellipse cx="430" cy="403" rx="30" ry="24" fill="#d9576b" stroke="#a63b4d" stroke-width="1.5"/><ellipse cx="430" cy="403" rx="13" ry="10" fill="#c14356" opacity="0.6"/><text x="500" y="407" font-size="11" fill="#4d6560">cap antigen</text></svg>