<svg xmlns="http://www.w3.org/2000/svg" viewBox="0 0 640 470" font-family="'Fira Sans Extra Condensed','Segoe UI',sans-serif">
  <rect width="640" height="470" fill="#fefdff"/>
  <text x="320" y="32" text-anchor="middle" font-size="21" font-weight="800" fill="#17605A">Mare portadora × pare sa: quins fills poden tenir?</text>
  <text x="320" y="54" text-anchor="middle" font-size="14" fill="#3a3340">Els pares et donen X amb H (sa) i X amb h (hemofília). Dedueix tu la descendència.</text>
  <text x="34" y="120" font-size="13" font-weight="700" fill="#78707e">Pares</text>
  <text x="34" y="300" font-size="13" font-weight="700" fill="#78707e">Fills?</text>
  <circle cx="210" cy="115" r="26" fill="#fff" stroke="#1E7A70" stroke-width="2.5"/>
  <path d="M210,89 A26,26 0 0,1 210,141 Z" fill="#9fd8cd"/>
  <text x="210" y="168" text-anchor="middle" font-size="15" font-weight="700" fill="#17605A">Mare portadora</text>
  <text x="210" y="189" text-anchor="middle" font-size="16" font-weight="800" fill="#1d1622">X<tspan font-size="10" dy="-6">H</tspan><tspan dy="6"> </tspan>X<tspan font-size="10" dy="-6">h</tspan></text>
  <rect x="404" y="89" width="52" height="52" fill="#fff" stroke="#1E7A70" stroke-width="2.5"/>
  <text x="430" y="168" text-anchor="middle" font-size="15" font-weight="700" fill="#17605A">Pare sa</text>
  <text x="430" y="189" text-anchor="middle" font-size="16" font-weight="800" fill="#1d1622">X<tspan font-size="10" dy="-6">H</tspan><tspan dy="6"> </tspan>Y</text>
  <line x1="236" y1="115" x2="404" y2="115" stroke="#3a3340" stroke-width="2"/>
  <line x1="320" y1="115" x2="320" y2="218" stroke="#3a3340" stroke-width="2"/>
  <line x1="115" y1="218" x2="525" y2="218" stroke="#3a3340" stroke-width="2"/>
  <g>
    <line x1="115" y1="218" x2="115" y2="252" stroke="#3a3340" stroke-width="2"/>
    <path d="M115,258 l26,26 l-26,26 l-26,-26 z" fill="#fff" stroke="#a7cfc7" stroke-width="2" stroke-dasharray="4 3"/>
    <text x="115" y="292" text-anchor="middle" font-size="24" fill="#b6b0bd">?</text>
    <line x1="252" y1="218" x2="252" y2="252" stroke="#3a3340" stroke-width="2"/>
    <path d="M252,258 l26,26 l-26,26 l-26,-26 z" fill="#fff" stroke="#a7cfc7" stroke-width="2" stroke-dasharray="4 3"/>
    <text x="252" y="292" text-anchor="middle" font-size="24" fill="#b6b0bd">?</text>
    <line x1="388" y1="218" x2="388" y2="252" stroke="#3a3340" stroke-width="2"/>
    <path d="M388,258 l26,26 l-26,26 l-26,-26 z" fill="#fff" stroke="#a7cfc7" stroke-width="2" stroke-dasharray="4 3"/>
    <text x="388" y="292" text-anchor="middle" font-size="24" fill="#b6b0bd">?</text>
    <line x1="525" y1="218" x2="525" y2="252" stroke="#3a3340" stroke-width="2"/>
    <path d="M525,258 l26,26 l-26,26 l-26,-26 z" fill="#fff" stroke="#a7cfc7" stroke-width="2" stroke-dasharray="4 3"/>
    <text x="525" y="292" text-anchor="middle" font-size="24" fill="#b6b0bd">?</text>
  </g>
  <text x="320" y="336" text-anchor="middle" font-size="12.5" fill="#4d6560" font-style="italic">◇ = descendent per determinar (sexe, genotip i si està afectat)</text>
  <rect x="70" y="360" width="500" height="44" rx="10" fill="#e7f4f1" stroke="#a7cfc7" stroke-width="1.5"/>
  <circle cx="98" cy="382" r="10" fill="#fff" stroke="#1E7A70" stroke-width="2"/>
  <text x="115" y="387" font-size="12" fill="#3a3340">dona sana</text>
  <circle cx="212" cy="382" r="10" fill="#fff" stroke="#1E7A70" stroke-width="2"/>
  <path d="M212,372 A10,10 0 0,1 212,392 Z" fill="#9fd8cd"/>
  <text x="229" y="387" font-size="12" fill="#3a3340">portadora</text>
  <rect x="322" y="372" width="20" height="20" fill="#fff" stroke="#1E7A70" stroke-width="2"/>
  <text x="350" y="387" font-size="12" fill="#3a3340">home sa</text>
  <rect x="442" y="372" width="20" height="20" fill="#c96f3e" stroke="#a24e24" stroke-width="2"/>
  <text x="470" y="387" font-size="12" fill="#3a3340">afectat</text>
  <text x="320" y="436" text-anchor="middle" font-size="13" font-weight="700" fill="#17605A">Fes el quadre de Punnett i completa cada descendent amb el seu genotip.</text>
</svg>
