<svg xmlns="http://www.w3.org/2000/svg" viewBox="0 0 920 600" font-family="Fira Sans Extra Condensed, sans-serif"><rect x="0" y="0" width="920" height="600" fill="#fffdfb"/><rect x="12" y="12" width="896" height="34" rx="8" fill="#7E3A24"/><text x="460.0" y="35" text-anchor="middle" font-size="19" font-weight="900" fill="#fff">HOMOLOGIA — mateix esquelet, funcions diferents (mateix origen)</text><rect x="117" y="70" width="26" height="48.0" rx="6" fill="#C77D4A" stroke="#7E3A24" stroke-width="1"/><rect x="115" y="124.0" width="13" height="54.0" rx="6" fill="#2f9aa0" stroke="#7E3A24" stroke-width="1"/><rect x="132" y="124.0" width="13" height="54.0" rx="6" fill="#8a5a9e" stroke="#7E3A24" stroke-width="1"/><rect x="116" y="184.0" width="28" height="12" rx="4" fill="#c8960a" stroke="#7E3A24" stroke-width="1"/><rect x="110.0" y="198.0" width="6" height="26" rx="3" fill="#c8960a" stroke="#7E3A24" stroke-width="0.8"/><rect x="118.5" y="198.0" width="6" height="26" rx="3" fill="#c8960a" stroke="#7E3A24" stroke-width="0.8"/><rect x="127.0" y="198.0" width="6" height="26" rx="3" fill="#c8960a" stroke="#7E3A24" stroke-width="0.8"/><rect x="135.5" y="198.0" width="6" height="26" rx="3" fill="#c8960a" stroke="#7E3A24" stroke-width="0.8"/><rect x="144.0" y="198.0" width="6" height="26" rx="3" fill="#c8960a" stroke="#7E3A24" stroke-width="0.8"/><text x="130" y="242.0" text-anchor="middle" font-family="Fira Sans Extra Condensed, sans-serif" font-size="15" font-weight="700" fill="#7E3A24">Braç humà</text><rect x="317" y="70" width="26" height="55.199999999999996" rx="6" fill="#C77D4A" stroke="#7E3A24" stroke-width="1"/><rect x="315" y="131.2" width="13" height="72.9" rx="6" fill="#2f9aa0" stroke="#7E3A24" stroke-width="1"/><rect x="332" y="131.2" width="13" height="72.9" rx="6" fill="#8a5a9e" stroke="#7E3A24" stroke-width="1"/><rect x="316" y="210.1" width="28" height="12" rx="4" fill="#c8960a" stroke="#7E3A24" stroke-width="1"/><rect x="310.0" y="224.1" width="6" height="30" rx="3" fill="#c8960a" stroke="#7E3A24" stroke-width="0.8"/><rect x="327.0" y="224.1" width="6" height="30" rx="3" fill="#c8960a" stroke="#7E3A24" stroke-width="0.8"/><rect x="344.0" y="224.1" width="6" height="30" rx="3" fill="#c8960a" stroke="#7E3A24" stroke-width="0.8"/><text x="330" y="272.1" text-anchor="middle" font-family="Fira Sans Extra Condensed, sans-serif" font-size="15" font-weight="700" fill="#7E3A24">Ala de pollastre</text><rect x="517" y="70" width="26" height="38.400000000000006" rx="6" fill="#C77D4A" stroke="#7E3A24" stroke-width="1"/><rect x="515" y="114.4" width="13" height="81.0" rx="6" fill="#2f9aa0" stroke="#7E3A24" stroke-width="1"/><rect x="532" y="114.4" width="13" height="81.0" rx="6" fill="#8a5a9e" stroke="#7E3A24" stroke-width="1"/><rect x="516" y="201.4" width="28" height="12" rx="4" fill="#c8960a" stroke="#7E3A24" stroke-width="1"/><rect x="510.0" y="215.4" width="6" height="90" rx="3" fill="#c8960a" stroke="#7E3A24" stroke-width="0.8"/><rect x="518.5" y="215.4" width="6" height="90" rx="3" fill="#c8960a" stroke="#7E3A24" stroke-width="0.8"/><rect x="527.0" y="215.4" width="6" height="90" rx="3" fill="#c8960a" stroke="#7E3A24" stroke-width="0.8"/><rect x="535.5" y="215.4" width="6" height="90" rx="3" fill="#c8960a" stroke="#7E3A24" stroke-width="0.8"/><rect x="544.0" y="215.4" width="6" height="90" rx="3" fill="#c8960a" stroke="#7E3A24" stroke-width="0.8"/><text x="530" y="323.4" text-anchor="middle" font-family="Fira Sans Extra Condensed, sans-serif" font-size="15" font-weight="700" fill="#7E3A24">Ala de ratpenat</text><rect x="727" y="70" width="26" height="33.599999999999994" rx="6" fill="#C77D4A" stroke="#7E3A24" stroke-width="1"/><rect x="725" y="109.6" width="13" height="29.700000000000003" rx="6" fill="#2f9aa0" stroke="#7E3A24" stroke-width="1"/><rect x="742" y="109.6" width="13" height="29.700000000000003" rx="6" fill="#8a5a9e" stroke="#7E3A24" stroke-width="1"/><rect x="726" y="145.3" width="28" height="12" rx="4" fill="#c8960a" stroke="#7E3A24" stroke-width="1"/><rect x="720.0" y="159.3" width="6" height="26" rx="3" fill="#c8960a" stroke="#7E3A24" stroke-width="0.8"/><rect x="728.5" y="159.3" width="6" height="26" rx="3" fill="#c8960a" stroke="#7E3A24" stroke-width="0.8"/><rect x="737.0" y="159.3" width="6" height="26" rx="3" fill="#c8960a" stroke="#7E3A24" stroke-width="0.8"/><rect x="745.5" y="159.3" width="6" height="26" rx="3" fill="#c8960a" stroke="#7E3A24" stroke-width="0.8"/><rect x="754.0" y="159.3" width="6" height="26" rx="3" fill="#c8960a" stroke="#7E3A24" stroke-width="0.8"/><text x="740" y="203.3" text-anchor="middle" font-family="Fira Sans Extra Condensed, sans-serif" font-size="15" font-weight="700" fill="#7E3A24">Aleta de balena</text><rect x="140" y="340" width="18" height="14" rx="3" fill="#C77D4A" stroke="#7E3A24" stroke-width="1"/><text x="164" y="352" font-size="13" fill="#7E3A24">Húmer</text><rect x="310" y="340" width="18" height="14" rx="3" fill="#2f9aa0" stroke="#7E3A24" stroke-width="1"/><text x="334" y="352" font-size="13" fill="#7E3A24">Radi</text><rect x="480" y="340" width="18" height="14" rx="3" fill="#8a5a9e" stroke="#7E3A24" stroke-width="1"/><text x="504" y="352" font-size="13" fill="#7E3A24">Cúbit</text><rect x="650" y="340" width="18" height="14" rx="3" fill="#c8960a" stroke="#7E3A24" stroke-width="1"/><text x="674" y="352" font-size="13" fill="#7E3A24">Ossos de la mà / dits</text><text x="460.0" y="388" text-anchor="middle" font-size="12" font-style="italic" fill="#6b4a3a">Els MATEIXOS ossos (húmer, radi, cúbit) hi són en tots quatre, canviats de mida i forma. → parentiu: avantpassat comú</text><rect x="12" y="418" width="896" height="32" rx="8" fill="#C77D4A"/><text x="460.0" y="440" text-anchor="middle" font-size="18" font-weight="900" fill="#fff">ANALOGIA — mateixa funció, origen diferent (sense parentiu proper)</text><path d="M120 540 Q170 480 300 500 Q230 520 130 560 Z" fill="#C77D4A" stroke="#7E3A24" stroke-width="1.2" opacity="0.85"/><line x1="160" y1="510" x2="190" y2="488" stroke="#7E3A24" stroke-width="1"/><line x1="186" y1="518" x2="216" y2="496" stroke="#7E3A24" stroke-width="1"/><line x1="212" y1="526" x2="242" y2="504" stroke="#7E3A24" stroke-width="1"/><line x1="238" y1="534" x2="268" y2="512" stroke="#7E3A24" stroke-width="1"/><line x1="264" y1="542" x2="294" y2="520" stroke="#7E3A24" stroke-width="1"/><text x="205" y="588" text-anchor="middle" font-size="15" font-weight="700" fill="#7E3A24">Ala d’ocell (amb ossos)</text><path d="M540 525 Q640 470 760 505 Q650 525 560 565 Z" fill="#7bb5b8" stroke="#7E3A24" stroke-width="1.2" opacity="0.7"/><line x1="565" y1="532" x2="580" y2="510" stroke="#7E3A24" stroke-width="0.7" opacity="0.6"/><line x1="565" y1="532" x2="606" y2="496" stroke="#7E3A24" stroke-width="0.7" opacity="0.6"/><line x1="565" y1="532" x2="632" y2="522" stroke="#7E3A24" stroke-width="0.7" opacity="0.6"/><line x1="565" y1="532" x2="658" y2="508" stroke="#7E3A24" stroke-width="0.7" opacity="0.6"/><line x1="565" y1="532" x2="684" y2="494" stroke="#7E3A24" stroke-width="0.7" opacity="0.6"/><line x1="565" y1="532" x2="710" y2="520" stroke="#7E3A24" stroke-width="0.7" opacity="0.6"/><line x1="565" y1="532" x2="736" y2="506" stroke="#7E3A24" stroke-width="0.7" opacity="0.6"/><text x="650" y="588" text-anchor="middle" font-size="15" font-weight="700" fill="#7E3A24">Ala d’insecte (membrana, sense ossos)</text><text x="460.0" y="540" text-anchor="middle" font-size="22" font-weight="900" fill="#9C4A2F">≠</text><text x="460.0" y="620" text-anchor="middle" font-size="13" font-style="italic" fill="#6b4a3a">Totes dues serveixen per volar, però per dins no s’assemblen gens: cada ala va aparèixer pel seu compte (convergència).</text></svg>