<svg xmlns="http://www.w3.org/2000/svg" viewBox="0 0 880 560" font-family="Fira Sans Extra Condensed, sans-serif"><rect width="880" height="560" fill="#fffdfb"/><rect x="12" y="12" width="856" height="34" rx="8" fill="#7E3A24"/><text x="440.0" y="35" text-anchor="middle" font-size="18" font-weight="900" fill="#fff">ARBRE DE SEMBLANCES (ja construït) — llegeix-lo, no cal refer-lo</text><line x1="70" y1="90" x2="70" y2="470" stroke="#7E3A24" stroke-width="2"/><polygon points="65,90 75,90 70,80" fill="#7E3A24"/><text x="56" y="96" text-anchor="end" font-size="12.5" font-weight="700" fill="#7E3A24">avui</text><text x="56" y="470" text-anchor="end" font-size="12.5" font-weight="700" fill="#7E3A24">passat</text><text x="30" y="280.0" text-anchor="middle" font-size="12.5" fill="#7E3A24" transform="rotate(-90 30 280.0)">TEMPS</text><circle cx="180" cy="112" r="9" fill="#C77D4A" stroke="#7E3A24" stroke-width="1.2"/><text x="180" y="96" text-anchor="middle" font-size="14" font-weight="700" fill="#7E3A24">Pardal</text><circle cx="320" cy="112" r="9" fill="#C77D4A" stroke="#7E3A24" stroke-width="1.2"/><text x="320" y="96" text-anchor="middle" font-size="14" font-weight="700" fill="#7E3A24">Gallina</text><circle cx="470" cy="112" r="9" fill="#2f9aa0" stroke="#7E3A24" stroke-width="1.2"/><text x="470" y="96" text-anchor="middle" font-size="14" font-weight="700" fill="#7E3A24">Ratpenat</text><circle cx="640" cy="112" r="9" fill="#2f9aa0" stroke="#7E3A24" stroke-width="1.2"/><text x="640" y="96" text-anchor="middle" font-size="14" font-weight="700" fill="#7E3A24">Balena</text><path d="M180 112 L180 200 L180 200" fill="none" stroke="#7E3A24" stroke-width="2"/><path d="M320 112 L320 200 L320 200" fill="none" stroke="#7E3A24" stroke-width="2"/><line x1="180" y1="200" x2="320" y2="200" stroke="#7E3A24" stroke-width="2"/><path d="M470 112 L470 250 L470 250" fill="none" stroke="#7E3A24" stroke-width="2"/><path d="M640 112 L640 250 L640 250" fill="none" stroke="#7E3A24" stroke-width="2"/><line x1="470" y1="250" x2="640" y2="250" stroke="#7E3A24" stroke-width="2"/><path d="M250 200 L250 410 L250 410" fill="none" stroke="#7E3A24" stroke-width="2"/><path d="M555 250 L555 410 L555 410" fill="none" stroke="#7E3A24" stroke-width="2"/><line x1="250" y1="410" x2="555" y2="410" stroke="#7E3A24" stroke-width="2"/><circle cx="250" cy="200" r="7" fill="#fff" stroke="#9C4A2F" stroke-width="2.5"/><text x="250" y="222" text-anchor="middle" font-size="12" font-weight="700" fill="#9C4A2F">node 1</text><text x="250" y="237" text-anchor="middle" font-size="10.5" font-style="italic" fill="#6b4a3a">avantpassat comú</text><circle cx="555" cy="250" r="7" fill="#fff" stroke="#9C4A2F" stroke-width="2.5"/><text x="555" y="272" text-anchor="middle" font-size="12" font-weight="700" fill="#9C4A2F">node 2</text><text x="555" y="287" text-anchor="middle" font-size="10.5" font-style="italic" fill="#6b4a3a">avantpassat comú</text><circle cx="400" cy="410" r="7" fill="#fff" stroke="#9C4A2F" stroke-width="2.5"/><text x="400" y="432" text-anchor="middle" font-size="12" font-weight="700" fill="#9C4A2F">arrel</text><text x="400" y="447" text-anchor="middle" font-size="10.5" font-style="italic" fill="#6b4a3a">avantpassat comú de tots</text><circle cx="586" cy="360" r="7" fill="#fff" stroke="#9C4A2F" stroke-width="2.5"/><text x="600" y="364" font-size="12" fill="#7E3A24">node = avantpassat comú</text><circle cx="586" cy="382" r="8" fill="#C77D4A" stroke="#7E3A24"/><text x="600" y="386" font-size="12" fill="#7E3A24">espècie actual (punta de branca)</text><text x="440.0" y="510" text-anchor="middle" font-size="13" font-style="italic" fill="#6b4a3a">Com més a prop està el node que comparteixen, més recent és el seu avantpassat comú → més emparentats.</text></svg>