<svg xmlns="http://www.w3.org/2000/svg" xmlns:xlink="http://www.w3.org/1999/xlink" viewBox="0 0 760 536" width="760" height="536">
<title>Exemple de correlacio</title>
<rect width="760" height="536" fill="#fdfefe"/>
<defs><pattern id="hx" width="8" height="8" patternTransform="rotate(45)" patternUnits="userSpaceOnUse"><rect width="8" height="8" fill="#8a9aa4"/><line x1="0" y1="0" x2="0" y2="8" stroke="#6d7f8a" stroke-width="1.5"/></pattern></defs>
<text x="380.0" y="30" font-family="'Fira Sans Extra Condensed',sans-serif" font-size="17" font-weight="900" fill="#3A5266" text-anchor="middle">EXEMPLE: CORRELACIONAR AMB F&#210;SSILS GUIA</text>
<text x="380.0" y="50" font-family="'Fira Sans Extra Condensed',sans-serif" font-size="12" font-weight="400" fill="#5c7285" text-anchor="middle">Dos jaciments allunyats: les capes amb el mateix f&#242;ssil guia tenen la mateixa edat</text>
<text x="175.0" y="74" font-family="'Fira Sans Extra Condensed',sans-serif" font-size="14" font-weight="900" fill="#3A5266" text-anchor="middle">JACIMENT 1</text>
<rect x="90" y="86" width="170" height="34" fill="#c9c2b4" stroke="#7a8f9c" stroke-width="1.3"/>
<circle cx="104.0" cy="102" r="2.1" fill="#8e8778"/><circle cx="115.83333333333333" cy="102" r="2.1" fill="#8e8778"/><circle cx="127.66666666666667" cy="102" r="2.1" fill="#8e8778"/><circle cx="139.5" cy="102" r="2.1" fill="#8e8778"/><circle cx="151.33333333333334" cy="102" r="2.1" fill="#8e8778"/><circle cx="163.16666666666669" cy="102" r="2.1" fill="#8e8778"/><circle cx="175.0" cy="102" r="2.1" fill="#8e8778"/><circle cx="186.83333333333334" cy="102" r="2.1" fill="#8e8778"/><circle cx="198.66666666666669" cy="102" r="2.1" fill="#8e8778"/><circle cx="210.5" cy="102" r="2.1" fill="#8e8778"/><circle cx="222.33333333333334" cy="102" r="2.1" fill="#8e8778"/><circle cx="234.16666666666669" cy="102" r="2.1" fill="#8e8778"/><circle cx="246.0" cy="102" r="2.1" fill="#8e8778"/><rect x="90" y="120" width="170" height="56" fill="#dde5e9" stroke="#7a8f9c" stroke-width="1.3"/>
<line x1="100" y1="136" x2="250" y2="136" stroke="#b6c3c9" stroke-width="1.2"/><line x1="100" y1="156" x2="250" y2="156" stroke="#b6c3c9" stroke-width="1.2"/><g transform="translate(175.0,148.0) scale(0.9)"><ellipse cx="0" cy="0" rx="14" ry="10" fill="#7a6a4a"/><ellipse cx="0" cy="0" rx="10" ry="7.1" fill="none" stroke="#fdfefe" stroke-width="1"/><ellipse cx="0" cy="0" rx="6" ry="4.3" fill="none" stroke="#fdfefe" stroke-width="1"/><ellipse cx="0" cy="0" rx="3" ry="2.1" fill="none" stroke="#fdfefe" stroke-width="1"/></g><rect x="90" y="176" width="170" height="46" fill="#93a6b0" stroke="#7a8f9c" stroke-width="1.3"/>
<line x1="100" y1="190" x2="250" y2="190" stroke="#7d909b" stroke-width="1"/><line x1="100" y1="207" x2="250" y2="207" stroke="#7d909b" stroke-width="1"/><rect x="90" y="222" width="170" height="44" fill="#e0c894" stroke="#7a8f9c" stroke-width="1.3"/>
<path d="M102,240 q12,-6 24,0 q12,6 24,0 q12,-6 24,0 q12,6 24,0" fill="none" stroke="#b79a63" stroke-width="1.1"/><path d="M102,260 q12,-6 24,0 q12,6 24,0 q12,-6 24,0 q12,6 24,0" fill="none" stroke="#b79a63" stroke-width="1.1"/><rect x="90" y="266" width="170" height="52" fill="#dde5e9" stroke="#7a8f9c" stroke-width="1.3"/>
<line x1="100" y1="282" x2="250" y2="282" stroke="#b6c3c9" stroke-width="1.2"/><line x1="100" y1="302" x2="250" y2="302" stroke="#b6c3c9" stroke-width="1.2"/><g transform="translate(175.0,292.0) scale(0.9)"><ellipse cx="0" cy="0" rx="11" ry="15" fill="#4a3b2a"/><ellipse cx="0" cy="-9" rx="9" ry="6" fill="#6b5740"/><line x1="-9" y1="-2" x2="9" y2="-2" stroke="#fdfefe" stroke-width="1.2"/><line x1="-9" y1="2" x2="9" y2="2" stroke="#fdfefe" stroke-width="1.2"/><line x1="-9" y1="6" x2="9" y2="6" stroke="#fdfefe" stroke-width="1.2"/><line x1="-9" y1="10" x2="9" y2="10" stroke="#fdfefe" stroke-width="1.2"/><line x1="-4" y1="-14" x2="-4" y2="14" stroke="#fdfefe" stroke-width="1"/><line x1="4" y1="-14" x2="4" y2="14" stroke="#fdfefe" stroke-width="1"/></g><rect x="90" y="318" width="170" height="44" fill="#e0c894" stroke="#7a8f9c" stroke-width="1.3"/>
<path d="M102,336 q12,-6 24,0 q12,6 24,0 q12,-6 24,0 q12,6 24,0" fill="none" stroke="#b79a63" stroke-width="1.1"/><path d="M102,356 q12,-6 24,0 q12,6 24,0 q12,-6 24,0 q12,6 24,0" fill="none" stroke="#b79a63" stroke-width="1.1"/><rect x="90" y="86" width="170" height="276" fill="none" stroke="#2A3D4C" stroke-width="2"/>
<text x="585.0" y="74" font-family="'Fira Sans Extra Condensed',sans-serif" font-size="14" font-weight="900" fill="#3A5266" text-anchor="middle">JACIMENT 2</text>
<rect x="500" y="86" width="170" height="40" fill="#e0c894" stroke="#7a8f9c" stroke-width="1.3"/>
<path d="M512,104 q12,-6 24,0 q12,6 24,0 q12,-6 24,0 q12,6 24,0" fill="none" stroke="#b79a63" stroke-width="1.1"/><path d="M512,124 q12,-6 24,0 q12,6 24,0 q12,-6 24,0 q12,6 24,0" fill="none" stroke="#b79a63" stroke-width="1.1"/><g transform="translate(585.0,106.0) scale(0.9)"><ellipse cx="0" cy="0" rx="14" ry="10" fill="#7a6a4a"/><ellipse cx="0" cy="0" rx="10" ry="7.1" fill="none" stroke="#fdfefe" stroke-width="1"/><ellipse cx="0" cy="0" rx="6" ry="4.3" fill="none" stroke="#fdfefe" stroke-width="1"/><ellipse cx="0" cy="0" rx="3" ry="2.1" fill="none" stroke="#fdfefe" stroke-width="1"/></g><rect x="500" y="126" width="170" height="70" fill="#dde5e9" stroke="#7a8f9c" stroke-width="1.3"/>
<line x1="510" y1="142" x2="660" y2="142" stroke="#b6c3c9" stroke-width="1.2"/><line x1="510" y1="162" x2="660" y2="162" stroke="#b6c3c9" stroke-width="1.2"/><line x1="510" y1="182" x2="660" y2="182" stroke="#b6c3c9" stroke-width="1.2"/><rect x="500" y="196" width="170" height="38" fill="#e0c894" stroke="#7a8f9c" stroke-width="1.3"/>
<path d="M512,214 q12,-6 24,0 q12,6 24,0 q12,-6 24,0 q12,6 24,0" fill="none" stroke="#b79a63" stroke-width="1.1"/><rect x="500" y="234" width="170" height="64" fill="#93a6b0" stroke="#7a8f9c" stroke-width="1.3"/>
<line x1="510" y1="248" x2="660" y2="248" stroke="#7d909b" stroke-width="1"/><line x1="510" y1="265" x2="660" y2="265" stroke="#7d909b" stroke-width="1"/><line x1="510" y1="282" x2="660" y2="282" stroke="#7d909b" stroke-width="1"/><g transform="translate(585.0,266.0) scale(0.9)"><ellipse cx="0" cy="0" rx="11" ry="15" fill="#4a3b2a"/><ellipse cx="0" cy="-9" rx="9" ry="6" fill="#6b5740"/><line x1="-9" y1="-2" x2="9" y2="-2" stroke="#fdfefe" stroke-width="1.2"/><line x1="-9" y1="2" x2="9" y2="2" stroke="#fdfefe" stroke-width="1.2"/><line x1="-9" y1="6" x2="9" y2="6" stroke="#fdfefe" stroke-width="1.2"/><line x1="-9" y1="10" x2="9" y2="10" stroke="#fdfefe" stroke-width="1.2"/><line x1="-4" y1="-14" x2="-4" y2="14" stroke="#fdfefe" stroke-width="1"/><line x1="4" y1="-14" x2="4" y2="14" stroke="#fdfefe" stroke-width="1"/></g><rect x="500" y="298" width="170" height="40" fill="#dde5e9" stroke="#7a8f9c" stroke-width="1.3"/>
<line x1="510" y1="314" x2="660" y2="314" stroke="#b6c3c9" stroke-width="1.2"/><line x1="510" y1="334" x2="660" y2="334" stroke="#b6c3c9" stroke-width="1.2"/><rect x="500" y="86" width="170" height="252" fill="none" stroke="#2A3D4C" stroke-width="2"/>
<path d="M260,148.0 L500,106.0" stroke="#7a6a4a" stroke-width="2.2" stroke-dasharray="7 5" opacity=".85"/>
<rect x="342.0" y="111.0" width="76" height="15" rx="3" fill="#fdfefe" opacity=".95"/><text x="380.0" y="122.0" font-family="'Fira Sans Extra Condensed',sans-serif" font-size="10.5" font-weight="700" fill="#7a6a4a" text-anchor="middle">mateixa edat</text>
<path d="M260,292.0 L500,266.0" stroke="#4a3b2a" stroke-width="2.2" stroke-dasharray="7 5" opacity=".85"/>
<rect x="342.0" y="263.0" width="76" height="15" rx="3" fill="#fdfefe" opacity=".95"/><text x="380.0" y="274.0" font-family="'Fira Sans Extra Condensed',sans-serif" font-size="10.5" font-weight="700" fill="#4a3b2a" text-anchor="middle">mateixa edat</text>
<text x="380.0" y="74" font-family="'Fira Sans Extra Condensed',sans-serif" font-size="11" font-weight="600" fill="#5c7285" text-anchor="middle">molt lluny l&#39;un de l&#39;altre</text>
<line x1="64" y1="86" x2="64" y2="362" stroke="#3A5266" stroke-width="2"/>
<path d="M64,362 l-5,-10 m5,10 l5,-10" stroke="#3A5266" stroke-width="2" fill="none"/>
<text x="56" y="226" font-family="'Fira Sans Extra Condensed',sans-serif" font-size="11.5" font-weight="700" fill="#3A5266" text-anchor="middle" transform="rotate(-90 56,226)">m&#233;s modern a dalt &#183; m&#233;s antic a baix</text>
<rect x="60" y="394" width="640" height="88" rx="8" fill="#eef3f6" stroke="#a9bccb" stroke-width="1.4"/>
<text x="76" y="410" font-family="'Fira Sans Extra Condensed',sans-serif" font-size="11" font-weight="900" fill="#3A5266" text-anchor="start">F&#210;SSILS GUIA I EL SEU PER&#205;ODE</text>
<g transform="translate(112,438) scale(0.9)"><ellipse cx="0" cy="0" rx="11" ry="15" fill="#4a3b2a"/><ellipse cx="0" cy="-9" rx="9" ry="6" fill="#6b5740"/><line x1="-9" y1="-2" x2="9" y2="-2" stroke="#fdfefe" stroke-width="1.2"/><line x1="-9" y1="2" x2="9" y2="2" stroke="#fdfefe" stroke-width="1.2"/><line x1="-9" y1="6" x2="9" y2="6" stroke="#fdfefe" stroke-width="1.2"/><line x1="-9" y1="10" x2="9" y2="10" stroke="#fdfefe" stroke-width="1.2"/><line x1="-4" y1="-14" x2="-4" y2="14" stroke="#fdfefe" stroke-width="1"/><line x1="4" y1="-14" x2="4" y2="14" stroke="#fdfefe" stroke-width="1"/></g><text x="112" y="462" font-family="'Fira Sans Extra Condensed',sans-serif" font-size="11.5" font-weight="700" fill="#2A3D4C" text-anchor="middle">Trilobit</text>
<text x="112" y="476" font-family="'Fira Sans Extra Condensed',sans-serif" font-size="11" font-weight="400" fill="#5c7285" text-anchor="middle">Paleozoic antic</text>
<g transform="translate(272,438) scale(0.9)"><path d="M0,-16 C10,-8 11,8 0,16 C-11,8 -10,-8 0,-16 Z" fill="#3d5c3a"/><line x1="0" y1="-15" x2="0" y2="15" stroke="#cfe3cd" stroke-width="1.4"/><path d="M0,-11 Q5,-9 7,-5" fill="none" stroke="#cfe3cd" stroke-width=".9"/><path d="M0,-11 Q-5,-9 -7,-5" fill="none" stroke="#cfe3cd" stroke-width=".9"/><path d="M0,-6 Q5,-4 7,0" fill="none" stroke="#cfe3cd" stroke-width=".9"/><path d="M0,-6 Q-5,-4 -7,0" fill="none" stroke="#cfe3cd" stroke-width=".9"/><path d="M0,-1 Q5,1 7,5" fill="none" stroke="#cfe3cd" stroke-width=".9"/><path d="M0,-1 Q-5,1 -7,5" fill="none" stroke="#cfe3cd" stroke-width=".9"/><path d="M0,4 Q5,6 7,10" fill="none" stroke="#cfe3cd" stroke-width=".9"/><path d="M0,4 Q-5,6 -7,10" fill="none" stroke="#cfe3cd" stroke-width=".9"/></g><text x="272" y="462" font-family="'Fira Sans Extra Condensed',sans-serif" font-size="11.5" font-weight="700" fill="#2A3D4C" text-anchor="middle">Glossopteris (planta)</text>
<text x="272" y="476" font-family="'Fira Sans Extra Condensed',sans-serif" font-size="11" font-weight="400" fill="#5c7285" text-anchor="middle">Paleozoic final</text>
<g transform="translate(432,438) scale(0.9)"><circle cx="0" cy="0" r="13" fill="#3f4f5c"/><path d="M1.2,0.0 L1.27,0.15 L1.31,0.32 L1.33,0.5 L1.33,0.69 L1.3,0.89 L1.24,1.09 L1.15,1.28 L1.03,1.47 L0.88,1.65 L0.7,1.81 L0.5,1.96 L0.27,2.07 L0.02,2.17 L-0.24,2.23 L-0.53,2.26 L-0.82,2.25 L-1.11,2.2 L-1.41,2.11 L-1.7,1.98 L-1.98,1.82 L-2.25,1.61 L-2.49,1.36 L-2.7,1.08 L-2.88,0.77 L-3.03,0.43 L-3.13,0.07 L-3.19,-0.32 L-3.21,-0.71 L-3.17,-1.11 L-3.08,-1.52 L-2.94,-1.92 L-2.74,-2.3 L-2.5,-2.67 L-2.2,-3.01 L-1.86,-3.32 L-1.48,-3.58 L-1.06,-3.81 L-0.61,-3.98 L-0.13,-4.1 L0.37,-4.16 L0.88,-4.16 L1.39,-4.09 L1.9,-3.97 L2.41,-3.77 L2.89,-3.51 L3.34,-3.2 L3.76,-2.82 L4.13,-2.38 L4.46,-1.9 L4.72,-1.37 L4.93,-0.81 L5.06,-0.22 L5.13,0.39 L5.12,1.02 L5.03,1.65 L4.86,2.27 L4.62,2.88 L4.3,3.45 L3.91,4.0 L3.45,4.5 L2.92,4.94 L2.34,5.32 L1.71,5.63 L1.03,5.87 L0.33,6.03 L-0.4,6.1 L-1.14,6.08 L-1.89,5.97 L-2.62,5.77 L-3.33,5.48 L-4.01,5.1 L-4.64,4.63 L-5.22,4.09 L-5.73,3.48 L-6.18,2.79 L-6.54,2.06 L-6.81,1.27 L-6.99,0.45 L-7.07,-0.39 L-7.04,-1.25 L-6.91,-2.1 L-6.68,-2.95 L-6.34,-3.76 L-5.91,-4.54 L-5.37,-5.27 L-4.75,-5.93 L-4.05,-6.52 L-3.27,-7.02 L-2.43,-7.44 L-1.53,-7.75 L-0.6,-7.95 L0.36,-8.04 L1.33,-8.01 L2.3,-7.86 L3.25,-7.6 L4.18,-7.22 L5.06,-6.73 L5.88,-6.13 L6.63,-5.43 L7.29,-4.64 L7.86,-3.76 L8.32,-2.82 L8.68,-1.82 L8.9,-0.77 L9.01,0.3 L8.98,1.39 L8.82,2.48 L8.53,3.54 L8.11,4.57 L7.56,5.56 L6.9,6.47 L6.12,7.31 L5.24,8.05 L4.27,8.69 L3.23,9.21 L2.12,9.6 L0.96,9.86 L-0.23,9.98 L-1.43,9.95 L-2.63,9.78 L-3.81,9.46 L-4.95,9.0 L-6.04,8.41 L-7.05,7.68 L-7.98,6.83 L-8.8,5.87 L-9.5,4.8 L-10.08,3.66 L-10.52,2.44 L-10.81,1.17 L-10.95,-0.13 L-10.92,-1.45 L-10.74,-2.77 L-10.41,-4.06 L-9.91,-5.31 L-9.26,-6.5 L-8.47,-7.61 L-7.55,-8.63 L-6.51,-9.53 L-5.35,-10.31 L-4.1,-10.95 L-2.78,-11.43 L-1.4,-11.76 L0.01,-11.91 L1.45,-11.9 L2.88,-11.71 L4.29,-11.35 L5.65,-10.82 L6.95,-10.13" fill="none" stroke="#fdfefe" stroke-width="1.8"/><line x1="0" y1="0" x2="5.0" y2="1.6" stroke="#fdfefe" stroke-width=".9" opacity=".8"/><line x1="0" y1="0" x2="-4.4" y2="4.8" stroke="#fdfefe" stroke-width=".9" opacity=".8"/><line x1="0" y1="0" x2="-3.0" y2="-7.2" stroke="#fdfefe" stroke-width=".9" opacity=".8"/><line x1="0" y1="0" x2="9.0" y2="0.3" stroke="#fdfefe" stroke-width=".9" opacity=".8"/><line x1="0" y1="0" x2="-4.6" y2="9.2" stroke="#fdfefe" stroke-width=".9" opacity=".8"/><line x1="0" y1="0" x2="-7.2" y2="-8.9" stroke="#fdfefe" stroke-width=".9" opacity=".8"/></g><text x="432" y="462" font-family="'Fira Sans Extra Condensed',sans-serif" font-size="11.5" font-weight="700" fill="#2A3D4C" text-anchor="middle">Ammonit</text>
<text x="432" y="476" font-family="'Fira Sans Extra Condensed',sans-serif" font-size="11" font-weight="400" fill="#5c7285" text-anchor="middle">Mesozoic</text>
<g transform="translate(592,438) scale(0.9)"><ellipse cx="0" cy="0" rx="14" ry="10" fill="#7a6a4a"/><ellipse cx="0" cy="0" rx="10" ry="7.1" fill="none" stroke="#fdfefe" stroke-width="1"/><ellipse cx="0" cy="0" rx="6" ry="4.3" fill="none" stroke="#fdfefe" stroke-width="1"/><ellipse cx="0" cy="0" rx="3" ry="2.1" fill="none" stroke="#fdfefe" stroke-width="1"/></g><text x="592" y="462" font-family="'Fira Sans Extra Condensed',sans-serif" font-size="11.5" font-weight="700" fill="#2A3D4C" text-anchor="middle">Nummulit</text>
<text x="592" y="476" font-family="'Fira Sans Extra Condensed',sans-serif" font-size="11" font-weight="400" fill="#5c7285" text-anchor="middle">Cenozoic</text>
<text x="60" y="510" font-family="'Fira Sans Extra Condensed',sans-serif" font-size="11.5" font-weight="600" fill="#5c7285" text-anchor="start">Fixa-t&#39;hi: les capes de la mateixa edat NO tenen ni el mateix gruix ni el mateix tipus de roca.</text>
<text x="60" y="526" font-family="'Fira Sans Extra Condensed',sans-serif" font-size="11.5" font-weight="600" fill="#5c7285" text-anchor="start">El que les iguala &#233;s el f&#242;ssil guia que contenen.</text>
</svg>
