<svg xmlns="http://www.w3.org/2000/svg" viewBox="0 0 760 430" width="760" height="430" font-family="Fira Sans Extra Condensed, Arial, sans-serif">
<rect width="760" height="430" fill="#ffffff"/>
<text x="380" y="26" text-anchor="middle" font-size="17" font-weight="700" fill="#241F4A">Graella per al gràfic: quin percentatge de daus queda a cada tirada</text>
<text x="100" y="48" font-size="12.5" font-weight="700" fill="#241F4A">% de daus que queden  &#8595;</text>
<line x1="100" y1="295.0" x2="705" y2="295.0" stroke="#b3aed0" stroke-width="1.4"/>
<text x="91" y="299.0" text-anchor="end" font-size="11.5" fill="#33404b">0</text>
<line x1="100" y1="271.0" x2="705" y2="271.0" stroke="#e6e3f0" stroke-width="0.7"/>
<text x="91" y="275.0" text-anchor="end" font-size="11.5" fill="#33404b">10</text>
<line x1="100" y1="247.0" x2="705" y2="247.0" stroke="#e6e3f0" stroke-width="0.7"/>
<text x="91" y="251.0" text-anchor="end" font-size="11.5" fill="#33404b">20</text>
<line x1="100" y1="223.0" x2="705" y2="223.0" stroke="#e6e3f0" stroke-width="0.7"/>
<text x="91" y="227.0" text-anchor="end" font-size="11.5" fill="#33404b">30</text>
<line x1="100" y1="199.0" x2="705" y2="199.0" stroke="#e6e3f0" stroke-width="0.7"/>
<text x="91" y="203.0" text-anchor="end" font-size="11.5" fill="#33404b">40</text>
<line x1="100" y1="175.0" x2="705" y2="175.0" stroke="#b3aed0" stroke-width="1.4"/>
<text x="91" y="179.0" text-anchor="end" font-size="11.5" fill="#33404b">50</text>
<line x1="100" y1="151.0" x2="705" y2="151.0" stroke="#e6e3f0" stroke-width="0.7"/>
<text x="91" y="155.0" text-anchor="end" font-size="11.5" fill="#33404b">60</text>
<line x1="100" y1="127.0" x2="705" y2="127.0" stroke="#e6e3f0" stroke-width="0.7"/>
<text x="91" y="131.0" text-anchor="end" font-size="11.5" fill="#33404b">70</text>
<line x1="100" y1="103.0" x2="705" y2="103.0" stroke="#e6e3f0" stroke-width="0.7"/>
<text x="91" y="107.0" text-anchor="end" font-size="11.5" fill="#33404b">80</text>
<line x1="100" y1="79.0" x2="705" y2="79.0" stroke="#e6e3f0" stroke-width="0.7"/>
<text x="91" y="83.0" text-anchor="end" font-size="11.5" fill="#33404b">90</text>
<line x1="100" y1="55.0" x2="705" y2="55.0" stroke="#b3aed0" stroke-width="1.4"/>
<text x="91" y="59.0" text-anchor="end" font-size="11.5" fill="#33404b">100</text>
<line x1="100.0" y1="55" x2="100.0" y2="295" stroke="#b3aed0" stroke-width="1.4"/>
<text x="100.0" y="314" text-anchor="middle" font-size="12" fill="#33404b">0</text>
<line x1="200.8" y1="55" x2="200.8" y2="295" stroke="#e6e3f0" stroke-width="0.7"/>
<text x="200.8" y="314" text-anchor="middle" font-size="12" fill="#33404b">1</text>
<line x1="301.7" y1="55" x2="301.7" y2="295" stroke="#e6e3f0" stroke-width="0.7"/>
<text x="301.7" y="314" text-anchor="middle" font-size="12" fill="#33404b">2</text>
<line x1="402.5" y1="55" x2="402.5" y2="295" stroke="#e6e3f0" stroke-width="0.7"/>
<text x="402.5" y="314" text-anchor="middle" font-size="12" fill="#33404b">3</text>
<line x1="503.3" y1="55" x2="503.3" y2="295" stroke="#e6e3f0" stroke-width="0.7"/>
<text x="503.3" y="314" text-anchor="middle" font-size="12" fill="#33404b">4</text>
<line x1="604.2" y1="55" x2="604.2" y2="295" stroke="#e6e3f0" stroke-width="0.7"/>
<text x="604.2" y="314" text-anchor="middle" font-size="12" fill="#33404b">5</text>
<line x1="705.0" y1="55" x2="705.0" y2="295" stroke="#e6e3f0" stroke-width="0.7"/>
<text x="705.0" y="314" text-anchor="middle" font-size="12" fill="#33404b">6</text>
<line x1="100" y1="175.0" x2="705" y2="175.0" stroke="#B0821F" stroke-width="1.6" stroke-dasharray="7 4"/>
<text x="701" y="168.0" text-anchor="end" font-size="12" font-weight="700" fill="#8a6410">50 % — la meitat</text>
<text x="402" y="335" text-anchor="middle" font-size="13" font-weight="700" fill="#241F4A">nombre de tirades  (cada tirada = un interval de temps sempre igual)</text>
<rect x="100" y="352" width="605" height="62" rx="8" fill="#f1effa" stroke="#b3aed0" stroke-width="1.3"/>
<line x1="116" y1="374" x2="154" y2="374" stroke="#37306B" stroke-width="2.6"/><circle cx="135" cy="374" r="4" fill="#37306B"/>
<text x="164" y="379" font-size="12.5" fill="#241F4A">el meu equip (uns 40 daus)</text>
<line x1="116" y1="398" x2="154" y2="398" stroke="#B0821F" stroke-width="2.6" stroke-dasharray="6 3"/><circle cx="135" cy="398" r="4" fill="#B0821F"/>
<text x="164" y="403" font-size="12.5" fill="#8a6410">tota la classe sumada (molts més daus)</text>
<text x="392" y="379" font-size="12" fill="#33404b">Dibuixa primer els punts del teu equip i uneix-los.</text>
<text x="392" y="403" font-size="12" fill="#33404b">Després, amb un altre color, els de tota la classe.</text>
</svg>