<svg xmlns="http://www.w3.org/2000/svg" viewBox="0 0 760 470" width="760" height="470" font-family="Fira Sans Extra Condensed, Arial, sans-serif">
<rect width="760" height="470" fill="#ffffff"/>
<text x="380" y="26" text-anchor="middle" font-size="17" font-weight="700" fill="#241F4A">Com es llegeix una semivida en una corba (exemple resolt amb un altre element)</text>
<text x="95" y="64" font-size="12.5" font-weight="700" fill="#241F4A">% d'àtoms de partida que queden  &#8595;</text>
<text x="380" y="46" text-anchor="middle" font-size="12.5" font-style="italic" fill="#5a5580">Urani-235, que es transforma en plom-207. Aquest element NO és cap de les mostres del laboratori.</text>
<line x1="95" y1="300.0" x2="660" y2="300.0" stroke="#b3aed0" stroke-width="1.2"/>
<text x="87" y="304.0" text-anchor="end" font-size="11.5" fill="#33404b">0</text>
<line x1="95" y1="277.0" x2="660" y2="277.0" stroke="#f0eef7" stroke-width="0.7"/>
<line x1="95" y1="254.0" x2="660" y2="254.0" stroke="#f0eef7" stroke-width="0.7"/>
<text x="87" y="258.0" text-anchor="end" font-size="11.5" fill="#33404b">20</text>
<line x1="95" y1="231.0" x2="660" y2="231.0" stroke="#f0eef7" stroke-width="0.7"/>
<line x1="95" y1="208.0" x2="660" y2="208.0" stroke="#f0eef7" stroke-width="0.7"/>
<text x="87" y="212.0" text-anchor="end" font-size="11.5" fill="#33404b">40</text>
<line x1="95" y1="185.0" x2="660" y2="185.0" stroke="#b3aed0" stroke-width="1.2"/>
<line x1="95" y1="162.0" x2="660" y2="162.0" stroke="#f0eef7" stroke-width="0.7"/>
<text x="87" y="166.0" text-anchor="end" font-size="11.5" fill="#33404b">60</text>
<line x1="95" y1="139.0" x2="660" y2="139.0" stroke="#f0eef7" stroke-width="0.7"/>
<line x1="95" y1="116.0" x2="660" y2="116.0" stroke="#f0eef7" stroke-width="0.7"/>
<text x="87" y="120.0" text-anchor="end" font-size="11.5" fill="#33404b">80</text>
<line x1="95" y1="93.0" x2="660" y2="93.0" stroke="#f0eef7" stroke-width="0.7"/>
<line x1="95" y1="70.0" x2="660" y2="70.0" stroke="#b3aed0" stroke-width="1.2"/>
<text x="87" y="74.0" text-anchor="end" font-size="11.5" fill="#33404b">100</text>
<line x1="95.0" y1="70" x2="95.0" y2="300" stroke="#b3aed0" stroke-width="1.2"/>
<text x="95.0" y="318" text-anchor="middle" font-size="12" fill="#33404b">0</text>
<line x1="236.2" y1="70" x2="236.2" y2="300" stroke="#f0eef7" stroke-width="0.7"/>
<text x="236.2" y="318" text-anchor="middle" font-size="12" fill="#33404b">700</text>
<line x1="377.5" y1="70" x2="377.5" y2="300" stroke="#f0eef7" stroke-width="0.7"/>
<text x="377.5" y="318" text-anchor="middle" font-size="12" fill="#33404b">1400</text>
<line x1="518.8" y1="70" x2="518.8" y2="300" stroke="#f0eef7" stroke-width="0.7"/>
<text x="518.8" y="318" text-anchor="middle" font-size="12" fill="#33404b">2100</text>
<line x1="660.0" y1="70" x2="660.0" y2="300" stroke="#f0eef7" stroke-width="0.7"/>
<text x="660.0" y="318" text-anchor="middle" font-size="12" fill="#33404b">2800</text>
<polyline points="95.0,70.0 99.0,74.5 103.1,78.9 107.1,83.3 111.1,87.5 115.2,91.7 119.2,95.8 123.2,99.8 127.3,103.7 131.3,107.5 135.4,111.3 139.4,115.0 143.4,118.7 147.5,122.2 151.5,125.7 155.5,129.1 159.6,132.5 163.6,135.7 167.6,139.0 171.7,142.1 175.7,145.2 179.8,148.3 183.8,151.2 187.8,154.1 191.9,157.0 195.9,159.8 199.9,162.6 204.0,165.3 208.0,167.9 212.0,170.5 216.1,173.0 220.1,175.5 224.1,178.0 228.2,180.4 232.2,182.7 236.2,185.0 240.3,187.3 244.3,189.5 248.4,191.6 252.4,193.8 256.4,195.8 260.5,197.9 264.5,199.9 268.5,201.8 272.6,203.8 276.6,205.7 280.6,207.5 284.7,209.3 288.7,211.1 292.8,212.8 296.8,214.6 300.8,216.2 304.9,217.9 308.9,219.5 312.9,221.1 317.0,222.6 321.0,224.1 325.0,225.6 329.1,227.1 333.1,228.5 337.1,229.9 341.2,231.3 345.2,232.6 349.2,233.9 353.3,235.2 357.3,236.5 361.4,237.8 365.4,239.0 369.4,240.2 373.5,241.3 377.5,242.5 381.5,243.6 385.6,244.7 389.6,245.8 393.6,246.9 397.7,247.9 401.7,248.9 405.8,249.9 409.8,250.9 413.8,251.9 417.9,252.8 421.9,253.8 425.9,254.7 430.0,255.6 434.0,256.4 438.0,257.3 442.1,258.1 446.1,258.9 450.1,259.7 454.2,260.5 458.2,261.3 462.2,262.1 466.3,262.8 470.3,263.5 474.4,264.3 478.4,265.0 482.4,265.6 486.5,266.3 490.5,267.0 494.5,267.6 498.6,268.3 502.6,268.9 506.6,269.5 510.7,270.1 514.7,270.7 518.8,271.2 522.8,271.8 526.8,272.4 530.9,272.9 534.9,273.4 538.9,274.0 543.0,274.5 547.0,275.0 551.0,275.5 555.1,275.9 559.1,276.4 563.1,276.9 567.2,277.3 571.2,277.8 575.2,278.2 579.3,278.6 583.3,279.1 587.4,279.5 591.4,279.9 595.4,280.3 599.5,280.7 603.5,281.0 607.5,281.4 611.6,281.8 615.6,282.1 619.6,282.5 623.7,282.8 627.7,283.2 631.8,283.5 635.8,283.8 639.8,284.1 643.9,284.4 647.9,284.7 651.9,285.0 656.0,285.3 660.0,285.6" fill="none" stroke="#37306B" stroke-width="2.6"/>
<line x1="95" y1="70.0" x2="95.0" y2="70.0" stroke="#B0821F" stroke-width="1.2" stroke-dasharray="5 3"/>
<line x1="95.0" y1="70.0" x2="95.0" y2="300" stroke="#B0821F" stroke-width="1.2" stroke-dasharray="5 3"/>
<circle cx="95.0" cy="70.0" r="5" fill="#fff" stroke="#37306B" stroke-width="2.4"/>
<text x="107.0" y="88.0" font-size="12.5" font-weight="700" fill="#241F4A">100 %</text>
<line x1="95" y1="185.0" x2="236.2" y2="185.0" stroke="#B0821F" stroke-width="1.2" stroke-dasharray="5 3"/>
<line x1="236.2" y1="185.0" x2="236.2" y2="300" stroke="#B0821F" stroke-width="1.2" stroke-dasharray="5 3"/>
<circle cx="236.2" cy="185.0" r="5" fill="#fff" stroke="#37306B" stroke-width="2.4"/>
<text x="245.2" y="177.0" font-size="12.5" font-weight="700" fill="#241F4A">50 %</text>
<line x1="95" y1="242.5" x2="377.5" y2="242.5" stroke="#B0821F" stroke-width="1.2" stroke-dasharray="5 3"/>
<line x1="377.5" y1="242.5" x2="377.5" y2="300" stroke="#B0821F" stroke-width="1.2" stroke-dasharray="5 3"/>
<circle cx="377.5" cy="242.5" r="5" fill="#fff" stroke="#37306B" stroke-width="2.4"/>
<text x="386.5" y="234.5" font-size="12.5" font-weight="700" fill="#241F4A">25 %</text>
<line x1="95" y1="271.2" x2="518.8" y2="271.2" stroke="#B0821F" stroke-width="1.2" stroke-dasharray="5 3"/>
<line x1="518.8" y1="271.2" x2="518.8" y2="300" stroke="#B0821F" stroke-width="1.2" stroke-dasharray="5 3"/>
<circle cx="518.8" cy="271.2" r="5" fill="#fff" stroke="#37306B" stroke-width="2.4"/>
<text x="527.8" y="263.2" font-size="12.5" font-weight="700" fill="#241F4A">12,5 %</text>
<line x1="95.0" y1="334" x2="236.2" y2="334" stroke="#8a6410" stroke-width="1.6"/>
<polygon points="95.0,334 103.0,330 103.0,338" fill="#8a6410"/>
<polygon points="236.2,334 228.2,330 228.2,338" fill="#8a6410"/>
<text x="165.6" y="327" text-anchor="middle" font-size="11.5" font-weight="700" fill="#8a6410">1 semivida</text>
<line x1="236.2" y1="334" x2="377.5" y2="334" stroke="#8a6410" stroke-width="1.6"/>
<polygon points="236.2,334 244.2,330 244.2,338" fill="#8a6410"/>
<polygon points="377.5,334 369.5,330 369.5,338" fill="#8a6410"/>
<text x="306.9" y="327" text-anchor="middle" font-size="11.5" font-weight="700" fill="#8a6410">1 semivida</text>
<line x1="377.5" y1="334" x2="518.8" y2="334" stroke="#8a6410" stroke-width="1.6"/>
<polygon points="377.5,334 385.5,330 385.5,338" fill="#8a6410"/>
<polygon points="518.8,334 510.8,330 510.8,338" fill="#8a6410"/>
<text x="448.1" y="327" text-anchor="middle" font-size="11.5" font-weight="700" fill="#8a6410">1 semivida</text>
<text x="378" y="362" text-anchor="middle" font-size="13" font-weight="700" fill="#241F4A">temps transcorregut (milions d'anys)</text>

<rect x="672" y="70" width="76" height="230" rx="8" fill="#f1effa" stroke="#b3aed0" stroke-width="1.2"/>
<text x="710" y="92" text-anchor="middle" font-size="11.5" font-weight="700" fill="#241F4A">CADA</text>
<text x="710" y="108" text-anchor="middle" font-size="11.5" font-weight="700" fill="#241F4A">SEMIVIDA</text>
<text x="710" y="130" text-anchor="middle" font-size="12" fill="#33404b">100 %</text>
<text x="710" y="148" text-anchor="middle" font-size="13" fill="#37306B">&#8595;</text>
<text x="710" y="166" text-anchor="middle" font-size="12" fill="#33404b">50 %</text>
<text x="710" y="184" text-anchor="middle" font-size="13" fill="#37306B">&#8595;</text>
<text x="710" y="202" text-anchor="middle" font-size="12" fill="#33404b">25 %</text>
<text x="710" y="220" text-anchor="middle" font-size="13" fill="#37306B">&#8595;</text>
<text x="710" y="238" text-anchor="middle" font-size="12" fill="#33404b">12,5 %</text>
<text x="710" y="262" text-anchor="middle" font-size="11.5" fill="#5a5580">sempre</text>
<text x="710" y="278" text-anchor="middle" font-size="11.5" fill="#5a5580">la meitat</text>
<text x="710" y="294" text-anchor="middle" font-size="11.5" fill="#5a5580">del que hi ha</text>
<rect x="95" y="392" width="640" height="58" rx="8" fill="#fdf7e2" stroke="#c8960a" stroke-width="1.3"/>
<text x="110" y="414" font-size="12.5" font-weight="700" fill="#7a5800">La semivida no és «la meitat de la vida» del conjunt</text>
<text x="110" y="436" font-size="11.5" fill="#4a3a10">Passades dues semivides no queda 0 %, sinó 25 %: cada semivida es menja la meitat del que QUEDA.</text>
</svg>